<?xml version="1.0" encoding="UTF-8" standalone="no"?>
<!-- Created with Inkscape (http://www.inkscape.org/) -->

<svg
   width="62.749413mm"
   height="62.750996mm"
   viewBox="0 0 62.749413 62.750996"
   version="1.1"
   id="svg10852"
   xml:space="preserve"
   xmlns:inkscape="http://www.inkscape.org/namespaces/inkscape"
   xmlns:sodipodi="http://sodipodi.sourceforge.net/DTD/sodipodi-0.dtd"
   xmlns="http://www.w3.org/2000/svg"
   xmlns:svg="http://www.w3.org/2000/svg"><sodipodi:namedview
     id="namedview10854"
     pagecolor="#ffffff"
     bordercolor="#666666"
     borderopacity="1.0"
     inkscape:showpageshadow="2"
     inkscape:pageopacity="0.0"
     inkscape:pagecheckerboard="0"
     inkscape:deskcolor="#d1d1d1"
     inkscape:document-units="mm"
     showgrid="false" /><defs
     id="defs10849" /><g
     inkscape:label="Layer 1"
     inkscape:groupmode="layer"
     id="layer1"
     transform="translate(-192.24742,-1183.192)"><path
       id="path16914"
       style="fill:#ffffff;fill-opacity:1;stroke:none;stroke-width:1.32292;stroke-linecap:round;stroke-linejoin:round;stroke-opacity:1;paint-order:stroke fill markers;stop-color:#000000"
       d="m 201.43496,1192.3809 a 31.37751,31.37751 0 0 0 -1.52195,42.7343 l 14.29368,-14.2937 c -2.88545,-4.3775 -2.41214,-10.4157 1.4203,-14.2482 3.83248,-3.8324 9.87107,-4.3061 14.24872,-1.4208 l 14.29495,-14.2949 a 31.37751,31.37751 0 0 0 -42.7357,1.5233 z m 17.81939,17.8194 a 6.177215,6.177215 0 0 0 -2.1e-4,8.7359 6.177215,6.177215 0 0 0 8.73595,-1e-4 6.177215,6.177215 0 0 0 2e-5,-8.7358 6.177215,6.177215 0 0 0 -8.73576,0 z m -16.17933,28.0769 a 31.37751,31.37751 0 0 0 42.73446,-1.5217 31.37751,31.37751 0 0 0 1.5216,-42.7343 l -14.29334,14.2933 c 2.8853,4.3778 2.41191,10.4167 -1.42049,14.2491 -3.83238,3.8324 -9.87088,4.3054 -14.24851,1.4199 z"
       inkscape:export-filename=".\path16914.png"
       inkscape:export-xdpi="95.9"
       inkscape:export-ydpi="95.9" /></g></svg>
